<?xml version="1.0" standalone="no"?>
<!DOCTYPE svg PUBLIC "-//W3C//DTD SVG 20010904//EN"
 "http://www.w3.org/TR/2001/REC-SVG-20010904/DTD/svg10.dtd">
<svg version="1.0" xmlns="http://www.w3.org/2000/svg"
 width="346.000000pt" height="346.000000pt" viewBox="0 0 346.000000 346.000000"
 preserveAspectRatio="xMidYMid meet">
<metadata>
Created by potrace 1.11, written by Peter Selinger 2001-2013
</metadata>
<g transform="translate(0.000000,346.000000) scale(0.100000,-0.100000)"
fill="#000000" stroke="none">
<path d="M2096 3438 c-3 -13 -7 -39 -10 -58 -8 -63 -25 -164 -41 -245 -9 -44
-20 -105 -25 -135 -5 -30 -12 -71 -15 -90 -22 -135 -35 -209 -40 -235 -10 -47
-23 -123 -38 -220 -7 -49 -16 -97 -20 -105 -3 -8 -8 -33 -10 -55 -5 -37 -26
-163 -47 -280 -5 -27 -16 -93 -24 -145 -9 -52 -17 -99 -18 -105 -1 -5 -5 175
-8 400 l-5 410 -45 6 c-70 10 -66 15 -90 -116 -5 -27 -16 -86 -23 -130 -7 -44
-16 -87 -19 -95 -4 -8 -9 -35 -11 -60 -3 -25 -13 -83 -22 -130 -9 -47 -20
-107 -25 -135 -33 -188 -41 -235 -46 -275 -3 -25 -9 -54 -14 -65 -5 -11 -11
-36 -13 -55 -3 -19 -14 -84 -26 -145 -11 -60 -21 -122 -21 -138 0 -15 -4 -35
-9 -45 -6 -9 -15 -51 -21 -92 -7 -41 -15 -95 -20 -120 -39 -209 -61 -334 -70
-390 -4 -30 -16 -91 -25 -135 -9 -44 -20 -105 -25 -135 -5 -30 -14 -83 -19
-116 -6 -34 -15 -82 -20 -105 -6 -24 -11 -56 -11 -71 0 -27 1 -28 58 -28 l59
0 12 73 c7 39 16 88 21 107 14 57 29 151 36 215 3 33 9 69 14 80 5 11 11 38
14 60 3 22 13 76 21 120 8 44 18 108 21 143 4 34 11 62 15 62 5 0 9 17 9 38 1
20 5 57 11 82 5 25 14 72 20 105 12 72 22 131 44 250 9 50 20 117 25 150 5 33
16 96 25 140 25 125 36 185 44 245 5 32 9 -136 10 -408 l1 -463 56 3 57 3 13
45 c8 25 14 58 14 74 0 16 4 43 9 60 6 17 17 74 25 126 8 52 18 111 21 130 3
19 10 60 15 90 5 30 16 93 25 140 15 79 23 124 46 255 12 72 37 220 49 290 5
33 17 98 25 145 9 47 20 110 25 140 5 30 16 96 25 145 9 50 20 115 25 145 5
30 14 80 19 110 6 30 18 98 26 150 27 163 34 202 53 308 l18 102 -63 0 c-57 0
-63 -2 -67 -22z"/>
</g>
</svg>
